<?xml version="1.0" encoding="UTF-8"?>
<svg xmlns="http://www.w3.org/2000/svg" viewBox="0 0 768.3 287.7">
  <defs>
    <style>
      .cls-1 {
        fill: #1b1464;
      }

      .cls-2 {
        fill: blue;
      }
    </style>
  </defs>
  <g id="Layer_1" data-name="Layer 1">
    <text/>
    <text/>
    <text/>
  </g>
  <g id="Layer_2" data-name="Layer 2">
    <g>
      <path class="cls-2" d="M131.5,252.2C59.7,252.2,1.2,196.3,1.2,127.5S59.7,2.8,131.5,2.8s130.3,55.9,130.3,124.7-58.4,124.7-130.3,124.7ZM131.5,5.2C61,5.2,3.7,60.1,3.7,127.5s57.4,122.3,127.8,122.3,127.8-54.9,127.8-122.3S202,5.2,131.5,5.2h0Z"/>
      <path class="cls-2" d="M131.5,255C59,255,0,197.8,0,127.5S59,0,131.5,0s131.5,57.2,131.5,127.5-59,127.5-131.5,127.5ZM131.6,252.5h0ZM131.4,252.5h0ZM131.6,252.5h0ZM131.4,252.5h0ZM131.5,5c-33.8,0-65.7,12.8-89.6,36C18,64,4.9,94.8,4.9,127.5s13.1,63.5,37,86.6c23.9,23.2,55.8,36,89.6,36s65.7-12.8,89.6-36c23.9-23.1,37-53.9,37-86.6s-13.2-63.5-37-86.6c-23.9-23.2-55.8-36-89.6-36ZM260.6,127.6h0ZM2.4,127.6h0ZM260.6,127.6h0ZM2.4,127.6h0ZM260.6,127.4h0ZM2.4,127.4h0ZM260.6,127.4h0ZM2.4,127.4h0ZM131.6,2.5h0ZM131.4,2.5h0ZM131.6,2.5h0ZM131.4,2.5h0Z"/>
      <g>
        <path class="cls-1" d="M70.4,83.2h-11.1c0,0,0,3.6,0,3.6,0,0,8,.7,11.1,4.5v70s-.3,6.1-9.4,6v4.5h9.4v-4.5s8.7-.1,9.8-6.1l1.1-6v-59.3s.6-8.7-11-8.7v-4Z"/>
        <path class="cls-2" d="M65.5,83.2h32.4l.5,3.9s-10.2-1-11.3,6v65s0,7,2.3,7l9.1,2.1v4.5h-32.9v-4.5s9.1-.1,10.2-3.1l1.1-3v-68s-1.2-7.2-11.4-5.6v-4.3Z"/>
      </g>
      <g>
        <g>
          <path class="cls-1" d="M149.4,83.2h-9.8c0,0,0,3.6,0,3.6,0,0,7.1.7,9.8,4.5v70s-.2,6.1-8.3,6v4.5h8.3v-4.5s7.7-.1,8.7-6.1l1-6v-59.3s.6-8.7-9.7-8.7v-4Z"/>
          <path class="cls-2" d="M145,83.2h28.6l.4,3.9s-9-1-10,6v65s0,7,2,7l8,2.1v4.5h-29v-4.5s8-.1,9-3.1l1-3v-68s-1.1-7.2-10-5.6v-4.3Z"/>
        </g>
        <g>
          <path class="cls-1" d="M198.4,83.2h-9.8c0,0,0,3.6,0,3.6,0,0,7.1.7,9.8,4.5v70s-.2,6.1-8.3,6v4.5h8.3v-4.5s7.7-.1,8.7-6.1l1-6v-59.3s.6-8.7-9.7-8.7v-4Z"/>
          <path class="cls-2" d="M194,83.2h28.6l.4,3.9s-9-1-10,6v65s0,7,2,7l8,2.1v4.5h-29v-4.5s8-.1,9-3.1l1-3v-68s-1.1-7.2-10-5.6v-4.3Z"/>
        </g>
        <polygon class="cls-2" points="159.1 124.2 208.1 124.2 208.1 130.2 159.1 130.1 159.1 124.2"/>
      </g>
      <polygon class="cls-2" points="61.1 167.3 10.6 167.3 12.4 171.8 61.1 171.8 61.1 167.3"/>
      <polygon class="cls-2" points="223.1 167.3 251.3 167.3 249.6 171.8 223.1 171.8 223.1 167.3"/>
    </g>
  </g>
</svg>