<svg width="200" height="200" viewBox="0 0 200 200" fill="none" xmlns="http://www.w3.org/2000/svg">
<path fill-rule="evenodd" clip-rule="evenodd" d="M95.8693 57.2508C95.4093 58.2508 95.8693 58.1908 95.9693 58.0108C96.2187 57.5881 96.5678 57.2331 96.9863 56.9769C97.4047 56.7206 97.8796 56.5708 98.3693 56.5408C98.7667 56.5298 99.1643 56.5465 99.5593 56.5908C100.089 56.6608 100.209 56.7208 100.259 56.5908C100.309 56.4608 96.9993 54.7808 95.8693 57.2508ZM114.359 51.8008C114.372 51.761 114.369 51.7178 114.35 51.6804C114.331 51.643 114.299 51.6144 114.259 51.6008C110.549 49.8008 108.259 54.1708 108.769 54.4008C108.949 54.4708 108.919 54.3208 109.459 53.6908C111.819 51.0008 114.249 52.1608 114.359 51.8008ZM111.999 48.1708C112.159 48.2908 112.619 48.0508 111.589 47.4708C110.199 46.6908 107.339 47.0108 107.349 47.3708C107.359 47.7308 111.399 47.8608 111.999 48.1708ZM104.309 63.7108C103.839 62.1808 102.999 54.5108 102.579 54.5608C102.159 54.6108 103.089 64.4608 104.069 64.4408C104.684 64.3829 105.288 64.2347 105.859 64.0008C106.119 63.9008 107.669 63.2708 107.529 63.0008C107.389 62.7308 106.489 63.5608 104.309 63.7108ZM115.269 61.6208C115.327 61.9716 115.364 62.3255 115.379 62.6808C115.559 66.1108 112.879 66.4208 112.759 66.5208C112.639 66.6208 112.469 66.9608 113.709 66.5208C117.749 65.1708 114.789 58.7708 115.269 61.6208ZM86.6993 70.2308C86.719 70.247 86.7438 70.2559 86.7693 70.2559C86.7949 70.2559 86.8196 70.247 86.8393 70.2308C86.8556 70.2111 86.8645 70.1863 86.8645 70.1608C86.8645 70.1352 86.8556 70.1105 86.8393 70.0908C68.0793 54.3008 55.1193 43.4908 30.6393 23.5008C30.6206 23.4824 30.5955 23.4722 30.5693 23.4722C30.5432 23.4722 30.518 23.4824 30.4993 23.5008C30.481 23.5194 30.4708 23.5446 30.4708 23.5708C30.4708 23.5969 30.481 23.6221 30.4993 23.6408C52.7993 42.4108 64.8093 52.3608 86.6993 70.2308ZM53.2493 85.3608L58.6493 86.5408C58.6759 86.5408 58.7013 86.5302 58.72 86.5115C58.7388 86.4927 58.7493 86.4673 58.7493 86.4408C58.7493 86.4142 58.7388 86.3888 58.72 86.37C58.7013 86.3513 58.6759 86.3408 58.6493 86.3408L53.2793 85.0508C-8.80067 70.1708 -12.7107 70.8808 53.2493 85.3608ZM70.3593 111.531C70.3748 111.513 70.3833 111.49 70.3833 111.466C70.3833 111.442 70.3748 111.419 70.3593 111.401C70.3484 111.377 70.3287 111.359 70.3045 111.349C70.2802 111.34 70.2533 111.341 70.2293 111.351C53.9493 117.561 45.7193 120.511 8.27934 135.351C8.26676 135.355 8.2552 135.362 8.24535 135.371C8.23549 135.38 8.22753 135.391 8.22194 135.403C8.21635 135.415 8.21323 135.428 8.21279 135.442C8.21234 135.455 8.21457 135.468 8.21934 135.481C8.23042 135.507 8.25118 135.528 8.27727 135.539C8.30336 135.55 8.33277 135.551 8.35934 135.541C48.5593 120.361 65.9093 113.281 70.3593 111.531Z" fill="#0000FF"/>
<path fill-rule="evenodd" clip-rule="evenodd" d="M187.229 99.6704C183.465 93.5707 178.096 88.6237 171.709 85.3704C171.209 82.5004 165.979 56.2504 142.849 50.2004C142.849 50.2004 144.089 20.7104 123.969 19.7204C103.429 18.7204 95.4991 30.1504 95.5091 30.1204C95.5191 30.0904 83.3691 37.0004 93.6891 59.5604C95.8291 73.3304 104.859 81.4504 119.249 77.7804L120.779 80.8604C119.359 81.0104 108.059 82.4204 95.3691 91.3704C66.1891 111.93 54.9991 156 64.7691 173C65.7556 174.889 67.1766 176.517 68.9151 177.75C70.6537 178.983 72.66 179.785 74.7691 180.09C97.3491 183.33 106.839 155.23 109.269 132.53C111.709 136.63 114.969 141.74 118.849 147.06C118.509 152.65 116.849 168.31 118.399 179.06C118.4 179.074 118.404 179.086 118.41 179.098C118.417 179.11 118.425 179.12 118.435 179.128C118.446 179.137 118.457 179.143 118.47 179.147C118.483 179.151 118.496 179.152 118.509 179.15C118.534 179.144 118.556 179.13 118.572 179.11C118.588 179.09 118.598 179.066 118.599 179.04C117.669 170.04 118.939 152.16 119.059 147.35C119.689 148.22 120.349 149.09 121.059 149.96C120.969 151.4 120.389 155.69 120.059 160.87C119.159 175.44 121.059 180.48 120.829 179.03C119.489 168.35 121.099 154.45 121.259 150.24C133.349 166 151.999 184.16 170.999 178.23C202.789 168.28 196.529 115.45 187.229 99.6704ZM142.069 73.9104C131.459 79.6904 131.139 79.9104 131.549 84.3704C131.239 84.5604 130.919 84.7604 130.609 84.9704H130.529C130.069 80.3904 129.999 79.2004 133.739 76.9704L140.999 72.4704L142.069 73.9104ZM130.599 85.6504H130.659L131.729 86.1004C133.089 98.5604 128.199 103.3 124.279 128.88C123.639 128.38 122.919 127.77 122.389 127.31C124.259 114.74 130.669 98.3604 130.859 91.0104C130.887 89.22 130.8 87.4297 130.599 85.6504ZM131.339 85.1704L131.609 85.0004V85.4104L131.309 85.2904L131.339 85.1704ZM119.779 78.0004C119.579 77.6404 119.559 77.2604 119.299 77.3304C102.619 81.1004 93.3991 68.7604 93.8391 54.3304C94.5104 53.3923 95.2597 52.5125 96.0791 51.7004C96.3342 51.4562 96.616 51.2415 96.9191 51.0604C96.9571 51.0448 96.9882 51.016 97.0066 50.9792C97.025 50.9424 97.0294 50.9002 97.0191 50.8604C96.8891 50.4504 94.6991 51.2104 93.8891 53.2504C94.2291 47.2504 95.9991 38.8404 102.689 34.0504C102.689 34.0504 125.359 52.6804 126.689 52.8004C128.019 52.9204 127.779 47.0004 130.799 46.0004C133.819 45.0004 136.669 46.1604 136.719 50.1804C136.662 51.7471 136.196 53.2715 135.368 54.6028C134.54 55.934 133.379 57.026 131.999 57.7704C134.652 62.7787 137.618 67.615 140.879 72.2504C132.159 77.4104 130.799 77.7604 130.119 80.0604C129.457 79.4578 128.729 78.9312 127.949 78.4904C124.209 76.4704 120.119 77.6804 119.779 78.0004ZM119.889 78.2204C120.039 78.2204 124.489 76.6404 129.939 80.2904C129.854 80.6617 129.804 81.04 129.789 81.4204C126.449 79.1604 122.789 79.1904 120.789 80.4204L119.889 78.2204ZM95.7491 91.9004C109.119 82.3104 120.999 81.2104 120.999 81.2104C121.369 81.2104 120.999 80.7904 120.999 80.6904C123.719 79.6904 127.229 80.5704 129.859 81.8204C129.872 82.7898 129.935 83.7578 130.049 84.7204C129.869 84.6404 125.689 82.9004 125.579 83.1304C125.469 83.3604 129.949 85.3004 130.049 85.3404C125.049 88.5704 124.469 89.5504 130.169 85.9404C130.344 87.601 130.414 89.271 130.379 90.9404C130.189 98.0504 124.019 113.74 122.229 127.09C120.117 125.197 118.136 123.162 116.299 121C113.389 117.69 112.679 117.15 111.689 112.17C110.819 107.76 100.019 97.1704 98.9291 100.17C97.1591 98.5904 96.0691 99.7204 96.3491 101.08C95.2591 100.6 94.6391 101.79 94.7491 103.08C94.1691 102.65 93.2291 103.01 93.4291 104.99C93.6991 107.59 95.5591 112.17 96.0991 113.75C98.6591 121.17 101.509 122.36 100.439 125.4C98.7591 130.16 89.9991 137.26 85.9991 140.37C90.5691 123.2 93.7491 116.37 93.4391 116.26C93.1291 116.15 89.9791 125.08 89.4391 126.85C86.7183 124.828 83.54 123.51 80.1868 123.013C76.8336 122.516 73.4096 122.855 70.2191 124C75.9991 111.59 84.2391 100.16 95.7491 91.9004ZM70.0691 124.35C73.2839 123.345 76.6817 123.066 80.0175 123.533C83.3533 124 86.5439 125.201 89.3591 127.05L89.0291 128.05C82.0991 123.6 74.6991 123.28 69.4891 125.61C69.6791 125.22 69.8691 124.78 70.0691 124.35ZM74.8891 179.21C72.9168 178.921 71.0418 178.166 69.4193 177.008C67.7968 175.85 66.4736 174.322 65.5591 172.55C58.5591 160.37 63.7091 138.95 69.3491 125.97C74.4091 123.97 81.6391 124.14 88.9691 128.29C87.8991 131.93 87.1391 134.11 85.7391 140.58C81.8391 143.64 78.0491 146.24 73.9191 150.22C72.3363 151.646 70.9236 153.25 69.7091 155C69.6928 155.02 69.684 155.045 69.684 155.07C69.684 155.096 69.6928 155.121 69.7091 155.14C69.7278 155.159 69.7529 155.169 69.7791 155.169C69.8053 155.169 69.8304 155.159 69.8491 155.14C71.0822 153.423 72.5082 151.853 74.0991 150.46C80.7891 144.18 103.989 129.34 100.889 122.84C98.8891 118.7 97.7991 117.4 96.4991 113.67C95.5193 111.201 94.6845 108.677 93.9991 106.11C93.3691 103.26 94.2291 102.93 94.8191 103.71C95.8191 109.14 102.379 118.71 104.349 123.51C105.754 126.418 107.306 129.251 108.999 132C106.419 154.25 96.9191 182.48 74.8891 179.21ZM170.789 177.58C159.259 181.17 147.789 175.66 137.669 166.98C119.529 151.4 105.999 125.59 104.999 123.25C103.329 119.13 95.1591 106.25 95.4191 102.58C95.6591 99.1404 100.019 107.12 102.219 110.58C102.263 110.66 102.336 110.719 102.424 110.744C102.511 110.77 102.605 110.759 102.684 110.715C102.764 110.672 102.823 110.598 102.848 110.511C102.873 110.424 102.863 110.33 102.819 110.25C101.358 107.464 99.6617 104.808 97.7491 102.31C96.2291 100.57 96.5891 97.8504 100.839 103.31C104.349 107.82 104.319 109.39 104.969 109.03C105.007 109.01 105.041 108.981 105.068 108.947C105.095 108.913 105.116 108.874 105.128 108.832C105.14 108.791 105.144 108.747 105.139 108.704C105.134 108.66 105.12 108.618 105.099 108.58C103.582 105.742 101.707 103.111 99.5191 100.75C98.9791 97.8804 110.169 107.6 111.109 112.26C111.372 113.994 111.891 115.679 112.649 117.26C113.919 119.64 119.819 125.78 122.829 128.26C135.979 139.26 146.069 139.03 159.379 145.1C164.009 147.22 167.719 149.72 169.319 153.1C169.327 153.118 169.338 153.133 169.352 153.146C169.366 153.158 169.382 153.168 169.4 153.175C169.417 153.181 169.436 153.184 169.455 153.184C169.474 153.183 169.492 153.178 169.509 153.17C169.526 153.163 169.542 153.151 169.554 153.138C169.567 153.124 169.577 153.108 169.583 153.09C169.59 153.072 169.593 153.054 169.592 153.035C169.591 153.016 169.587 152.998 169.579 152.98C167.969 149.51 164.219 146.98 159.519 144.76C157.929 144.02 156.219 143.33 154.459 142.67C154.899 139.49 155.539 136.05 156.179 132.91C162.815 131.161 169.801 131.242 176.394 133.143C182.988 135.045 188.944 138.696 193.629 143.71C191.999 159.23 185.529 173 170.789 177.58ZM193.689 143.64C182.999 132 167.089 129.3 156.199 132.82C156.319 132.23 156.469 131.55 156.589 131C169.309 127.87 184.589 130.91 193.789 141.68C193.801 141.689 193.815 141.693 193.829 141.693C193.843 141.693 193.857 141.689 193.869 141.68C193.819 142.35 193.759 143 193.689 143.64ZM156.629 130.81C159.409 118.2 161.629 113.62 161.339 113.51C161.323 113.496 161.301 113.488 161.279 113.488C161.257 113.488 161.236 113.496 161.219 113.51C157.699 123.42 155.489 130.72 154.269 142.64C141.269 137.78 134.959 137.2 124.449 128.93C128.649 104.23 133.579 98.2604 132.219 86.2304C136.629 88.0704 137.809 88.0904 132.149 85.6004C132.149 85.4804 132.069 84.8604 132.039 84.6804C136.919 81.4804 136.339 81.3404 131.969 84.0604C131.619 80.1804 131.719 80.0604 142.199 74.0604C143.53 75.8477 144.962 77.5572 146.489 79.1804C146.489 79.1804 160.269 80.9604 168.559 84.1804C175.899 87.5004 182.699 92.7704 186.849 99.8804C191.089 107.14 195.199 124.75 193.849 141.55C184.649 130.24 168.999 127.51 156.629 130.81Z" fill="#0000FF"/>
</svg>
