<svg width="48" height="48" viewBox="0 0 48 48" fill="none" xmlns="http://www.w3.org/2000/svg">
<path fill-rule="evenodd" clip-rule="evenodd" d="M0 9.4285C0 6.58817 2.30254 4.28564 5.14286 4.28564H42.8571C45.6974 4.28564 48 6.58817 48 9.4285V10.6009L25.3145 25.7272C24.9946 25.933 24.5301 26.0798 24 26.0798C23.4698 26.0798 23.0054 25.933 22.6855 25.7272L0 10.6009V9.4285ZM0 15.752V38.5714C0 41.4116 2.30254 43.7142 5.14286 43.7142H42.8571C45.6974 43.7142 48 41.4116 48 38.5714V15.752L27.6605 29.314C26.5817 30.0163 25.2862 30.3655 24 30.3655C22.7138 30.3655 21.4184 30.0162 20.3396 29.3139L20.3197 29.301L0 15.752Z" fill="#0000FF"/>
</svg>
